<?xml version="1.0" encoding="UTF-8"?><svg id="_лой_2" xmlns="http://www.w3.org/2000/svg" viewBox="0 0 3794.49 764.05"><defs><style>.cls-1{fill:#76bf87;}.cls-2{fill:#fbfdfc;}.cls-3{opacity:.8;}.cls-4{fill:#292929;}</style></defs><g id="_ЕЛЕНЫЙ"><path class="cls-1" d="M15.75,15.75h0C25.83,5.66,39.5,0,53.76,0H709.72c14.26,0,27.93,5.66,38.02,15.75l.62,.62c10.08,10.08,15.75,23.76,15.75,38.02V710.23c0,14.26-5.66,27.93-15.75,38.02l-.06,.06c-10.08,10.08-23.76,15.75-38.02,15.75H54.26c-14.26,0-27.93-5.66-38.02-15.75l-.29-.29c-10.08-10.08-15.74-23.75-15.75-38L0,53.78C0,39.51,5.66,25.83,15.75,15.75Z"/></g><g id="_ОГО_БЕЛЫЙ" class="cls-3"><path class="cls-2" d="M192.49,489.08v-111.33c0-7.14,3.82-13.73,10.02-17.28l106.72-61.16c5.79-3.32,12.85-3.52,18.81-.53l5.26,2.63c14.21,7.1,14.79,27.17,1.02,35.09l-84.92,48.81c-6.14,3.53-9.94,10.05-9.99,17.12l-.64,86.8c-.08,10.94-8.98,19.77-19.92,19.77h-6.43c-11,0-19.92-8.92-19.92-19.92Z"/><path class="cls-2" d="M233.07,318h-21.77c-11,0-19.92-8.92-19.92-19.92h0c0-6.6,3.27-12.78,8.74-16.48l81.31-55.16c3.3-2.24,7.2-3.44,11.18-3.44h50.85c3.93,0,7.78,1.16,11.05,3.35l82.11,54.74c5.54,3.69,8.87,9.91,8.87,16.57v.42c0,11-8.92,19.92-19.92,19.92h-22.43c-3.58,0-7.09-.96-10.17-2.79l-64.37-38.21c-6.24-3.7-14-3.72-20.26-.05l-65.19,38.3c-3.06,1.8-6.54,2.74-10.09,2.74Z"/><path class="cls-2" d="M481.04,397.5h4.54c5.28,0,10.35-2.1,14.09-5.83l3.41-3.41c3.74-3.74,5.83-8.8,5.83-14.09v-108.02c0-6.61-3.28-12.79-8.76-16.5l-81.61-55.23c-3.3-2.23-7.18-3.42-11.16-3.42h-20.97c-11,0-19.92,8.92-19.92,19.92v1.39c0,6.68,3.35,12.91,8.91,16.6l77.14,51.15c5.59,3.71,8.94,9.98,8.91,16.68l-.33,80.75c-.04,11.03,8.89,20,19.92,20Z"/><path class="cls-2" d="M482.5,553.68l81.08-53.77c5.57-3.69,8.91-9.92,8.91-16.6v-1.6c0-11-8.92-19.92-19.92-19.92h-22.07c-3.6,0-7.14,.98-10.23,2.83l-64.55,38.63c-6.32,3.78-14.21,3.77-20.52-.03l-63.96-38.57c-3.1-1.87-6.66-2.86-10.29-2.86h-22.08c-11,0-19.92,8.92-19.92,19.92v.55c0,6.6,3.27,12.78,8.74,16.49l80.82,54.82c3.3,2.24,7.19,3.43,11.18,3.43h51.79c3.92,0,7.75-1.15,11.01-3.32Z"/><path class="cls-2" d="M545.3,270.5h7.27c11,0,19.92,8.92,19.92,19.92v111.42c0,7.15-3.84,13.76-10.05,17.3l-107.64,61.41c-5.81,3.32-12.91,3.49-18.88,.47l-5.17-2.62c-14.1-7.15-14.66-27.09-.97-35.01l85.75-49.63c6.16-3.57,9.95-10.15,9.94-17.26l-.1-86.05c-.01-11.01,8.91-19.94,19.92-19.94Z"/><path class="cls-2" d="M303.49,481.52v-78.54c0-11-8.92-19.92-19.92-19.92h-4.06c-5.28,0-10.35,2.1-14.09,5.83l-4.18,4.18c-3.74,3.74-5.83,8.8-5.83,14.09v107.23c0,6.63,3.3,12.82,8.8,16.53l81.25,54.68c3.29,2.21,7.16,3.39,11.12,3.39h21.49c11,0,19.92-8.92,19.92-19.92v-1.6c0-6.56-3.23-12.7-8.63-16.41l-77.23-53.13c-5.4-3.72-8.63-9.85-8.63-16.41Z"/></g><g id="_рифт"><path class="cls-4" d="M1538.49,222c-91.68,0-166,74.32-166,166s74.32,166,166,166,166-74.32,166-166-74.32-166-166-166Zm-3,255c-48.6,0-88-39.4-88-88s39.4-88,88-88,88,39.4,88,88-39.4,88-88,88Z"/><path class="cls-4" d="M2006.49,303c-31.44-52.05-85.07-80-145.88-80h-88.65c-3.02,0-5.47,2.45-5.47,5.47v322.06c0,3.02,2.45,5.47,5.47,5.47h81.08c58.92,0,117.11-30.12,151.45-78,33-46,31-127,2-175Zm-50,87c0,72-48.12,88-94.02,88h-27.5c-3.02,0-5.47-2.45-5.47-5.47v-164.06c0-3.02,2.45-5.47,5.47-5.47h27.39c50.12,0,94.14,22,94.14,87Z"/><path class="cls-4" d="M1255.21,459.58c-10.22,8.77-27.85,18.42-55.7,18-48.21-.73-87.93-39.19-88.23-87.41-.3-48.86,39.21-88.56,88-88.56,28.28,0,46.09,9.7,56.47,18.58,9.25,7.92,22.17,9.93,33.24,4.88l.15-.07c9.8-4.48,17.34-12.77,20.86-22.96l1.6-4.64c5.77-16.7-.31-35.19-14.83-45.26-26.44-18.35-58.46-29.22-93.01-29.52-91.4-.8-166.79,73.32-167.48,164.71-.7,92.27,73.89,167.28,166,167.28,35.38,0,68.16-11.07,95.1-29.93,15.63-10.95,21.32-31.43,13.37-48.78h0c-4.03-8.8-11.16-15.8-20.03-19.68l-3.15-1.38c-10.81-4.72-23.41-2.95-32.37,4.73Z"/><path class="cls-4" d="M2123.01,556h225.13c3.51,0,6.35-2.84,6.35-6.35v-81.04c0-3.51-2.84-6.35-6.35-6.35h-147.17c-3.51,0-6.35-2.84-6.35-6.35v-19.54c0-3.51,2.84-6.35,6.35-6.35h98.89c3.51,0,6.35-2.84,6.35-6.35v-67.29c0-3.51-2.84-6.35-6.35-6.35h-113.25c-3.51,0-6.35-2.84-6.35-6.35v-34.29c0-3.51,2.84-6.35,6.35-6.35h161.54c3.51,0,6.35-2.84,6.35-6.35v-67.29c0-3.51-2.84-6.35-6.35-6.35h-225.13c-3.51,0-6.35,2.84-6.35,6.35v320.29c0,3.51,2.84,6.35,6.35,6.35Z"/><path class="cls-4" d="M2785.74,460.96c-10.22,8.77-27.85,18.42-55.7,18-48.21-.73-87.93-39.19-88.23-87.41-.3-48.86,39.21-88.56,88-88.56,28.28,0,46.09,9.7,56.47,18.58,9.25,7.92,22.17,9.93,33.24,4.88l.15-.07c9.8-4.48,17.34-12.77,20.86-22.96l1.6-4.64c5.77-16.7-.31-35.19-14.83-45.26-26.44-18.35-58.46-29.22-93.01-29.52-91.4-.8-166.79,73.32-167.48,164.71-.7,92.27,73.89,167.28,166,167.28,35.38,0,68.16-11.07,95.1-29.93,15.63-10.95,21.32-31.43,13.37-48.78h0c-4.03-8.8-11.16-15.8-20.03-19.68l-3.15-1.38c-10.81-4.72-23.41-2.95-32.37,4.73Z"/><path class="cls-4" d="M2911.79,230.54v318.89c0,3.62,2.93,6.55,6.55,6.55h208.6c3.62,0,6.55-2.93,6.55-6.55v-64.89c0-3.62-2.93-6.55-6.55-6.55h-135.45V230.54c0-3.62-2.93-6.55-6.55-6.55h-66.6c-3.62,0-6.55,2.93-6.55,6.55Z"/><path class="cls-4" d="M3492.72,223.09h-79.53c-4.25,0-7.7,3.44-7.71,7.7l-.26,186.06c-.04,30-23.56,55.2-53.54,56.21-.85,.03-1.71,.04-2.56,.04-30.81-.09-55.53-25.55-55.53-56.36V231.7c0-4.26-3.45-7.71-7.71-7.71h-79.97c-4.26,0-7.71,3.45-7.71,7.71v182.16c0,29.98,9.52,59.2,27.18,83.42l.25,.35c20.61,28.27,50.92,48.16,85.2,55.13,25.24,5.14,51.28,5.08,76.49-.17,34.51-7.19,64.87-27.55,85.32-56.27h0c16.83-23.65,25.99-51.89,26.23-80.91l1.56-184.55c.04-4.28-3.43-7.77-7.71-7.77Z"/><path class="cls-4" d="M3770.49,374h0c27.73-29.9,31.87-74.71,10.1-109.18l-6.32-10.01c-12.47-19.75-34.2-31.72-57.56-31.72h-146.33c-4.08,0-7.38,3.3-7.38,7.38v318.73c0,4.08,3.3,7.38,7.38,7.38h143.79c23.99,0,46.21-12.63,58.49-33.24h0c27.51-46.2,26.68-103.95-2.17-149.33h0Zm-32-47.5c0,12.98-10.52,23.5-23.5,23.5h-16c-12.98,0-23.5,10.52-23.5,23.5v17.55c0,12.98,10.52,23.5,23.5,23.5h15c12.98,0,23.5,10.52,23.5,23.5v16.45c0,12.98-10.52,23.5-23.5,23.5h-80.39c-3.38,0-6.11-2.74-6.11-6.11v-162.77c0-3.38,2.74-6.11,6.11-6.11h81.39c12.98,0,23.5,10.52,23.5,23.5h0Z"/></g></svg>